PathFileType	4	(X/Y/Z)	 2.2Hzlow3min.trc
DataRate	CameraRate	NumFrames	NumMarkers	Units	OrigDataRate	OrigDataStartFrame	OrigNumFrames
200	200	9	35	m	200	126	1000
Frame#	Time	C7			LSH			RSH			MAN			RASI			LASI			HIPR			HIPL			RPSI			LPSI			COX			RTHI1			RTHI2			RTHI3			RTHI4			RSHA1			RSHA2			RSHA3			RSHA4			RHEEL			RMET5			RMET1			RTOE			LTHI1			LTHI2			LTHI3			LTHI4			LSHA1			LSHA2			LSHA3			LSHA4			LHEEL			LMET5			LMET1			LTOE			
		X1	Y1	Z1	X2	Y2	Z2	X3	Y3	Z3	X4	Y4	Z4	X5	Y5	Z5	X6	Y6	Z6	X7	Y7	Z7	X8	Y8	Z8	X9	Y9	Z9	X10	Y10	Z10	X11	Y11	Z11	X12	Y12	Z12	X13	Y13	Z13	X14	Y14	Z14	X15	Y15	Z15	X16	Y16	Z16	X17	Y17	Z17	X18	Y18	Z18	X19	Y19	Z19	X20	Y20	Z20	X21	Y21	Z21	X22	Y22	Z22	X23	Y23	Z23	X24	Y24	Z24	X25	Y25	Z25	X26	Y26	Z26	X27	Y27	Z27	X28	Y28	Z28	X29	Y29	Z29	X30	Y30	Z30	X31	Y31	Z31	X32	Y32	Z32	X33	Y33	Z33	X34	Y34	Z34	X35	Y35	Z35	
126	0.6300	-0.000000	0.000000	-0.000000	-0.174103	1.413394	-0.697770	-0.195640	1.393219	-0.356754	-0.113163	1.366721	-0.524196	-0.082268	0.975650	-0.401179	-0.069225	0.975008	-0.626467	-0.142333	1.030728	-0.380045	-0.128724	1.018553	-0.661368	-0.238565	1.006510	-0.469755	-0.235896	1.003834	-0.576635	-0.238619	1.013355	-0.519601	-0.174876	0.774247	-0.349920	-0.156672	0.717528	-0.349662	-0.094444	0.735323	-0.343309	-0.105834	0.795643	-0.343650	-0.189184	0.397600	-0.349090	-0.207394	0.358723	-0.354635	-0.150013	0.340341	-0.364172	-0.136814	0.378607	-0.362523	-0.307635	0.130717	-0.421352	-0.183673	0.034358	-0.369877	-0.152563	0.037235	-0.440182	-0.127775	0.028081	-0.438010	-0.147658	0.766211	-0.695762	-0.124348	0.709528	-0.689426	-0.063823	0.729470	-0.679182	-0.078333	0.788173	-0.684057	-0.191058	0.359510	-0.680296	-0.208095	0.322728	-0.678582	-0.150039	0.303991	-0.663106	-0.140004	0.346785	-0.667754	-0.310535	0.115848	-0.624697	-0.175907	0.035647	-0.663593	-0.145904	0.037782	-0.596342	-0.122358	0.026617	-0.592338	
127	0.6350	-0.000000	0.000000	-0.000000	-0.174496	1.418224	-0.697263	-0.195797	1.398016	-0.356900	-0.113592	1.371722	-0.524041	-0.081889	0.979969	-0.401135	-0.068725	0.979284	-0.626202	-0.141761	1.035390	-0.380148	-0.127862	1.023341	-0.660935	-0.237767	1.011334	-0.469717	-0.235116	1.008655	-0.576588	-0.237947	1.018053	-0.519585	-0.175338	0.778862	-0.349518	-0.157488	0.722019	-0.349020	-0.095219	0.739505	-0.342560	-0.106188	0.799863	-0.343061	-0.190598	0.401240	-0.348524	-0.208350	0.362109	-0.353963	-0.150701	0.344292	-0.362890	-0.137933	0.382793	-0.361316	-0.305388	0.133530	-0.420645	-0.182978	0.034669	-0.369777	-0.152231	0.037456	-0.439863	-0.127764	0.028231	-0.437734	-0.148228	0.771083	-0.695989	-0.125144	0.714297	-0.690018	-0.064472	0.733924	-0.680066	-0.078738	0.792686	-0.684668	-0.191855	0.363093	-0.681081	-0.208522	0.326166	-0.679289	-0.150116	0.307984	-0.664423	-0.140574	0.350863	-0.669082	-0.308226	0.118837	-0.625162	-0.175154	0.035977	-0.663831	-0.145567	0.037904	-0.596416	-0.122397	0.026749	-0.592602	
128	0.6400	-0.246566	1.417125	-0.524910	-0.174893	1.422838	-0.696768	-0.195902	1.402622	-0.357027	-0.114053	1.376550	-0.523875	-0.081573	0.984087	-0.401099	-0.068251	0.983379	-0.625928	-0.141260	1.039827	-0.380218	-0.127019	1.027914	-0.660521	-0.236991	1.016005	-0.469678	-0.234355	1.013330	-0.576535	-0.237301	1.022622	-0.519561	-0.175852	0.783286	-0.349149	-0.158343	0.726332	-0.348400	-0.096022	0.743494	-0.341765	-0.106603	0.803903	-0.342466	-0.191987	0.404705	-0.348066	-0.209271	0.365324	-0.353392	-0.151356	0.348103	-0.361662	-0.139027	0.386805	-0.360168	-0.303095	0.136246	-0.419896	-0.182252	0.035018	-0.369709	-0.151823	0.037755	-0.439512	-0.127704	0.028404	-0.437349	-0.148868	0.775778	-0.696136	-0.126002	0.718903	-0.690570	-0.065175	0.738222	-0.680982	-0.079201	0.797033	-0.685313	-0.192599	0.366528	-0.681755	-0.208893	0.329459	-0.679901	-0.150148	0.311820	-0.665670	-0.141084	0.354787	-0.670311	-0.305887	0.121729	-0.625656	-0.174370	0.036340	-0.664034	-0.145253	0.038058	-0.596567	-0.122439	0.026949	-0.592979	
129	0.6450	-0.247000	1.421488	-0.525092	-0.175292	1.427229	-0.696284	-0.195966	1.407018	-0.357148	-0.114519	1.381168	-0.523702	-0.081312	0.987992	-0.401071	-0.067794	0.987269	-0.625648	-0.140811	1.044036	-0.380268	-0.126199	1.032267	-0.660126	-0.236249	1.020504	-0.469637	-0.233616	1.017840	-0.576473	-0.236682	1.027032	-0.519528	-0.176408	0.787494	-0.348820	-0.159222	0.730432	-0.347835	-0.096850	0.747283	-0.340964	-0.107070	0.807750	-0.341873	-0.193340	0.407978	-0.347705	-0.210159	0.368375	-0.352911	-0.151992	0.351758	-0.360524	-0.140087	0.390634	-0.359111	-0.300790	0.138859	-0.419064	-0.181491	0.035429	-0.369687	-0.151336	0.038140	-0.439121	-0.127590	0.028608	-0.436837	-0.149567	0.780273	-0.696194	-0.126909	0.723313	-0.691062	-0.065920	0.742339	-0.681923	-0.079712	0.801188	-0.685973	-0.193285	0.369795	-0.682308	-0.209198	0.332588	-0.680413	-0.150129	0.315479	-0.666842	-0.141540	0.358539	-0.671434	-0.303554	0.124504	-0.626192	-0.173552	0.036755	-0.664195	-0.144948	0.038275	-0.596823	-0.122464	0.027240	-0.593500	
130	0.6500	-0.247352	1.425578	-0.525172	-0.175556	1.431360	-0.695797	-0.195999	1.411187	-0.357282	-0.114935	1.385520	-0.523532	-0.081103	0.991675	-0.401054	-0.067354	0.990945	-0.625369	-0.140411	1.048017	-0.380307	-0.125415	1.036387	-0.659753	-0.235542	1.024810	-0.469595	-0.232912	1.022175	-0.576395	-0.236091	1.031256	-0.519501	-0.177000	0.791466	-0.348554	-0.160111	0.734313	-0.347333	-0.097686	0.750853	-0.340154	-0.107583	0.811392	-0.341283	-0.194639	0.411052	-0.347424	-0.211012	0.371217	-0.352524	-0.152604	0.355221	-0.359480	-0.141120	0.394236	-0.358200	-0.298508	0.141356	-0.418184	-0.180697	0.035925	-0.369713	-0.150772	0.038619	-0.438682	-0.127412	0.028844	-0.436190	-0.150313	0.784537	-0.696150	-0.127850	0.727495	-0.691475	-0.066701	0.746242	-0.682869	-0.080261	0.805125	-0.686640	-0.193894	0.372899	-0.682744	-0.209434	0.335542	-0.680825	-0.150066	0.318948	-0.667919	-0.141931	0.362091	-0.672433	-0.301274	0.127163	-0.626809	-0.172707	0.037244	-0.664321	-0.144640	0.038588	-0.597207	-0.122450	0.027650	-0.594191	
131	0.6550	-0.247533	1.429372	-0.525004	-0.175659	1.435225	-0.695304	-0.195991	1.415132	-0.357356	-0.115319	1.389609	-0.523363	-0.080927	0.995125	-0.401043	-0.066935	0.994402	-0.625092	-0.140065	1.051762	-0.380337	-0.124677	1.040265	-0.659404	-0.234880	1.028908	-0.469555	-0.232242	1.026312	-0.576305	-0.235534	1.035284	-0.519475	-0.177602	0.795196	-0.348355	-0.160988	0.737966	-0.346907	-0.098545	0.754204	-0.339382	-0.108129	0.814815	-0.340700	-0.195908	0.413906	-0.347256	-0.211830	0.373857	-0.352238	-0.153194	0.358479	-0.358537	-0.142115	0.397600	-0.357413	-0.296307	0.143717	-0.417247	-0.179876	0.036524	-0.369777	-0.150134	0.039202	-0.438181	-0.127160	0.029127	-0.435403	-0.151094	0.788556	-0.696025	-0.128810	0.731425	-0.691793	-0.067507	0.749912	-0.683808	-0.080844	0.808836	-0.687290	-0.194411	0.375832	-0.683074	-0.209592	0.338323	-0.681152	-0.149948	0.322208	-0.668895	-0.142244	0.365430	-0.673300	-0.299089	0.129667	-0.627486	-0.171839	0.037831	-0.664425	-0.144282	0.039031	-0.597734	-0.122340	0.028197	-0.595078	
132	0.6600	-0.247628	1.432692	-0.524755	-0.175581	1.438814	-0.694810	-0.195945	1.418826	-0.357379	-0.115679	1.393433	-0.523190	-0.080781	0.998327	-0.401038	-0.066539	0.997628	-0.624822	-0.139765	1.055270	-0.380368	-0.123993	1.043894	-0.659086	-0.234269	1.032778	-0.469515	-0.231615	1.030241	-0.576217	-0.235016	1.039105	-0.519442	-0.178206	0.798680	-0.348216	-0.161849	0.741380	-0.346566	-0.099402	0.757323	-0.338650	-0.108695	0.818006	-0.340135	-0.197106	0.416546	-0.347156	-0.212592	0.376293	-0.352036	-0.153754	0.361517	-0.357687	-0.143059	0.400723	-0.356718	-0.294264	0.145945	-0.416236	-0.179027	0.037256	-0.369854	-0.149414	0.039891	-0.437616	-0.126822	0.029467	-0.434485	-0.151897	0.792306	-0.695809	-0.129777	0.735082	-0.692007	-0.068327	0.753323	-0.684724	-0.081459	0.812288	-0.687902	-0.194821	0.378571	-0.683310	-0.209664	0.340919	-0.681412	-0.149774	0.325249	-0.669758	-0.142470	0.368553	-0.674037	-0.297055	0.132009	-0.628225	-0.170958	0.038549	-0.664539	-0.143828	0.039642	-0.598426	-0.122087	0.028911	-0.596168	
133	0.6650	-0.247734	1.435622	-0.524522	-0.175368	1.442138	-0.694313	-0.195870	1.422254	-0.357368	-0.116014	1.396985	-0.523013	-0.080665	1.001283	-0.401037	-0.066169	1.000614	-0.624561	-0.139511	1.058527	-0.380398	-0.123368	1.047266	-0.658802	-0.233714	1.036403	-0.469481	-0.231033	1.033942	-0.576117	-0.234536	1.042690	-0.519413	-0.178803	0.801907	-0.348153	-0.162688	0.744532	-0.346332	-0.100246	0.760199	-0.337955	-0.109270	0.820971	-0.339592	-0.198220	0.418973	-0.347094	-0.213297	0.378535	-0.351885	-0.154280	0.364320	-0.356926	-0.143945	0.403601	-0.356117	-0.292425	0.148025	-0.415138	-0.178153	0.038144	-0.369902	-0.148617	0.040715	-0.436976	-0.126373	0.029917	-0.433445	-0.152709	0.795763	-0.695499	-0.130729	0.738439	-0.692106	-0.069146	0.756456	-0.685607	-0.082096	0.815467	-0.688460	-0.195111	0.381104	-0.683482	-0.209645	0.343323	-0.681629	-0.149541	0.328062	-0.670508	-0.142610	0.371432	-0.674657	-0.295224	0.134173	-0.628981	-0.170079	0.039423	-0.664724	-0.143232	0.040441	-0.599289	-0.121644	0.029809	-0.597455	
134	0.6700	-0.247709	1.438393	-0.524148	-0.174988	1.445182	-0.693818	-0.195765	1.425405	-0.357329	-0.116316	1.400257	-0.522834	-0.080582	1.003989	-0.401038	-0.065855	1.003360	-0.624304	-0.139294	1.061541	-0.380427	-0.122812	1.050371	-0.658552	-0.233222	1.039772	-0.469451	-0.230506	1.037403	-0.576017	-0.234099	1.046028	-0.519394	-0.179388	0.804875	-0.348171	-0.163495	0.747439	-0.346194	-0.101064	0.762833	-0.337307	-0.109853	0.823693	-0.339076	-0.199229	0.421178	-0.347046	-0.213930	0.380568	-0.351774	-0.154751	0.366878	-0.356243	-0.144757	0.406215	-0.355579	-0.290841	0.149924	-0.414039	-0.177251	0.039207	-0.369871	-0.147724	0.041707	-0.436247	-0.125781	0.030541	-0.432289	-0.153516	0.798899	-0.695092	-0.131655	0.741488	-0.692102	-0.069950	0.759300	-0.686425	-0.082747	0.818355	-0.688963	-0.195268	0.383431	-0.683620	-0.209539	0.345534	-0.681825	-0.149262	0.330635	-0.671127	-0.142646	0.374056	-0.675153	-0.293634	0.136152	-0.629717	-0.169207	0.040493	-0.665053	-0.142466	0.041447	-0.600333	-0.120983	0.030902	-0.598917	
